<svg width="943" height="120" viewBox="0 0 943 120" fill="none" xmlns="http://www.w3.org/2000/svg">
<path d="M45.6033 26.149C57.8696 17.2212 75.4215 19.12 88.6691 24.8453C93.7535 27.043 89.3337 34.1594 84.3208 32.3245C83.1032 31.9408 82.4737 31.6759 81.813 31.4593C79.1858 30.5992 76.495 29.9076 73.7743 29.4208C66.8182 28.1758 59.0859 28.2932 52.7645 31.7986C40.7201 38.4791 36.0473 56.4927 47.1674 66.1448C51.373 69.795 45.2528 75.8948 41.0758 72.2694C26.6509 59.7488 31.1939 36.6364 45.602 26.149H45.6033ZM23.9951 32.8439C26.0538 27.736 34.3832 29.9833 32.3025 35.146C28.3811 44.8725 26.5665 57.9269 31.8183 67.4329C38.6122 79.7304 56.8728 84.2315 66.3834 72.6766C69.9218 68.3764 75.9849 74.5376 72.475 78.8012C60.4579 93.4033 37.6334 89.4399 26.8598 75.4981C17.7905 63.7631 18.6615 46.0784 23.9964 32.8439H23.9951ZM74.3961 93.851C62.1297 102.779 44.5779 100.88 31.3289 95.1547C26.2446 92.957 30.6384 85.4987 35.6773 87.6755C33.8017 86.8651 37.5244 88.3241 38.1851 88.5407C40.8123 89.4008 43.5031 90.0911 46.2238 90.5792C53.1799 91.8242 60.9122 91.7068 67.2336 88.2014C79.2779 81.5209 83.9508 63.5086 72.8307 53.8565C68.6251 50.2063 74.7439 44.1052 78.9223 47.7319C93.3472 60.2525 88.8041 83.3649 74.3961 93.851ZM96.0043 87.1561C93.9456 92.264 85.6162 90.0167 87.6969 84.854C91.6183 75.1275 93.4329 62.0731 88.1811 52.5684C81.3872 40.2709 63.1266 35.7685 53.616 47.3247C50.0776 51.6249 44.0145 45.4637 47.5244 41.2001C59.5415 26.598 82.3659 30.5614 93.1395 44.5032C102.209 56.2382 101.338 73.9229 96.003 87.1574L96.0043 87.1561Z" fill="url(#paint0_radial_529_3263)"/>
<mask id="mask0_529_3263" style="mask-type:luminance" maskUnits="userSpaceOnUse" x="20" y="20" width="73" height="80">
<path d="M45.6037 26.149C31.1956 36.635 26.6525 59.7474 41.0775 72.268C41.829 72.9206 42.6416 73.2573 43.4476 73.3512C42.8596 73.1842 42.2768 72.8762 41.7265 72.3985C27.3015 59.8779 31.8446 36.7655 46.2527 26.2795C54.9572 19.9435 66.324 19.06 76.925 21.1272C66.141 18.8968 54.486 19.6838 45.6037 26.149ZM66.3837 72.6752C61.6226 78.4605 54.6678 80.221 48.0582 78.9942C54.8586 80.4624 62.1158 78.7802 67.0327 72.8057C67.9816 71.652 69.1122 71.2514 70.1908 71.3649C68.9291 70.9891 67.5247 71.2879 66.3837 72.6752ZM27.5079 75.6285C18.4399 63.8935 19.3096 46.2088 24.6445 32.9731C25.5648 30.6892 27.7416 29.8762 29.6782 30.1372C27.6027 29.5799 25.0209 30.299 23.9955 32.8426C18.6606 46.0783 17.7909 63.763 26.8589 75.498C31.6992 81.7622 38.9747 86.0115 46.6096 87.4666C39.2122 85.8992 32.212 81.7153 27.5079 75.6285ZM31.9783 95.2838C27.3366 93.2793 30.5946 86.8872 35.03 87.4457C30.2766 86.1315 26.4643 93.0522 31.3293 95.1533C35.1766 96.816 39.3861 98.1562 43.7241 99.0019C39.6159 98.151 35.6335 96.8629 31.9783 95.2838ZM73.48 53.9856C70.0286 50.9892 73.5319 46.3433 77.2092 46.7792C73.3191 45.6607 69.1758 50.6826 72.831 53.8551C83.9512 63.5072 79.2783 81.5208 67.2339 88.2013C60.9139 91.7067 53.1802 91.8229 46.2254 90.5791C45.9398 90.5283 45.6543 90.4747 45.3687 90.4173C45.8698 90.5217 46.3708 90.6196 46.8744 90.7096C53.8292 91.9534 61.5629 91.8372 67.8829 88.3318C79.9273 81.6513 84.6002 63.6378 73.48 53.9856ZM88.3463 84.9831C92.2676 75.2566 94.0822 62.2035 88.8304 52.6975C85.4374 46.556 79.1848 42.359 72.5909 41.1348C78.9447 42.5064 84.9 46.6278 88.1814 52.567C93.4332 62.073 91.6186 75.1261 87.6973 84.8526C86.5459 87.7067 88.5773 89.6695 90.9709 89.9919C88.8798 89.432 87.3014 87.5749 88.3463 84.9831ZM74.0395 32.6625C64.4964 30.6383 54.2952 32.9718 47.5247 41.1988C44.9572 44.3191 47.5144 48.4548 50.4583 48.7641C47.8116 47.9759 45.7971 44.2173 48.1737 41.3293C54.7911 33.2889 64.6859 30.8772 74.0395 32.6625Z" fill="white"/>
</mask>
<g mask="url(#mask0_529_3263)">
<g style="mix-blend-mode:lighten" opacity="0.75">
<path style="mix-blend-mode:screen" opacity="0.15" d="M42.6816 41.3462C50.1371 41.3462 56.181 35.2695 56.181 27.7737C56.181 20.2778 50.1371 14.2012 42.6816 14.2012C35.226 14.2012 29.1821 20.2778 29.1821 27.7737C29.1821 35.2695 35.226 41.3462 42.6816 41.3462Z" fill="url(#paint1_radial_529_3263)"/>
<path style="mix-blend-mode:screen" opacity="0.33" d="M42.6814 34.5617C46.4091 34.5617 49.4311 31.5234 49.4311 27.7755C49.4311 24.0276 46.4091 20.9893 42.6814 20.9893C38.9536 20.9893 35.9316 24.0276 35.9316 27.7755C35.9316 31.5234 38.9536 34.5617 42.6814 34.5617Z" fill="url(#paint2_radial_529_3263)"/>
<path style="mix-blend-mode:screen" d="M42.6814 34.5617C46.4091 34.5617 49.4311 31.5234 49.4311 27.7755C49.4311 24.0276 46.4091 20.9893 42.6814 20.9893C38.9536 20.9893 35.9316 24.0276 35.9316 27.7755C35.9316 31.5234 38.9536 34.5617 42.6814 34.5617Z" fill="url(#paint3_radial_529_3263)"/>
</g>
<g style="mix-blend-mode:lighten" opacity="0.75">
<path style="mix-blend-mode:screen" opacity="0.15" d="M71.8852 83.3696C79.3407 83.3696 85.3846 77.293 85.3846 69.7971C85.3846 62.3012 79.3407 56.2246 71.8852 56.2246C64.4297 56.2246 58.3857 62.3012 58.3857 69.7971C58.3857 77.293 64.4297 83.3696 71.8852 83.3696Z" fill="url(#paint4_radial_529_3263)"/>
<path style="mix-blend-mode:screen" opacity="0.33" d="M71.8855 76.5832C75.6132 76.5832 78.6352 73.5449 78.6352 69.797C78.6352 66.049 75.6132 63.0107 71.8855 63.0107C68.1577 63.0107 65.1357 66.049 65.1357 69.797C65.1357 73.5449 68.1577 76.5832 71.8855 76.5832Z" fill="url(#paint5_radial_529_3263)"/>
<path style="mix-blend-mode:screen" d="M71.8855 76.5832C75.6132 76.5832 78.6352 73.5449 78.6352 69.797C78.6352 66.049 75.6132 63.0107 71.8855 63.0107C68.1577 63.0107 65.1357 66.049 65.1357 69.797C65.1357 73.5449 68.1577 76.5832 71.8855 76.5832Z" fill="url(#paint6_radial_529_3263)"/>
</g>
<g style="mix-blend-mode:lighten" opacity="0.75">
<path style="mix-blend-mode:screen" opacity="0.15" d="M48.5204 47.2143C55.976 47.2143 62.0199 41.1377 62.0199 33.6418C62.0199 26.1459 55.976 20.0693 48.5204 20.0693C41.0649 20.0693 35.021 26.1459 35.021 33.6418C35.021 41.1377 41.0649 47.2143 48.5204 47.2143Z" fill="url(#paint7_radial_529_3263)"/>
<path style="mix-blend-mode:screen" opacity="0.33" d="M48.5212 40.4299C52.249 40.4299 55.2709 37.3916 55.2709 33.6437C55.2709 29.8957 52.249 26.8574 48.5212 26.8574C44.7934 26.8574 41.7715 29.8957 41.7715 33.6437C41.7715 37.3916 44.7934 40.4299 48.5212 40.4299Z" fill="url(#paint8_radial_529_3263)"/>
<path style="mix-blend-mode:screen" d="M48.5212 40.4299C52.249 40.4299 55.2709 37.3916 55.2709 33.6437C55.2709 29.8957 52.249 26.8574 48.5212 26.8574C44.7934 26.8574 41.7715 29.8957 41.7715 33.6437C41.7715 37.3916 44.7934 40.4299 48.5212 40.4299Z" fill="url(#paint9_radial_529_3263)"/>
</g>
<g style="mix-blend-mode:lighten" opacity="0.75">
<path style="mix-blend-mode:screen" opacity="0.15" d="M25.9355 102.549C33.391 102.549 39.4349 96.4727 39.4349 88.9768C39.4349 81.4809 33.391 75.4043 25.9355 75.4043C18.4799 75.4043 12.436 81.4809 12.436 88.9768C12.436 96.4727 18.4799 102.549 25.9355 102.549Z" fill="url(#paint10_radial_529_3263)"/>
<path style="mix-blend-mode:screen" opacity="0.33" d="M25.9348 95.7649C29.6626 95.7649 32.6845 92.7266 32.6845 88.9786C32.6845 85.2307 29.6626 82.1924 25.9348 82.1924C22.207 82.1924 19.1851 85.2307 19.1851 88.9786C19.1851 92.7266 22.207 95.7649 25.9348 95.7649Z" fill="url(#paint11_radial_529_3263)"/>
<path style="mix-blend-mode:screen" d="M25.9348 95.7649C29.6626 95.7649 32.6845 92.7266 32.6845 88.9786C32.6845 85.2307 29.6626 82.1924 25.9348 82.1924C22.207 82.1924 19.1851 85.2307 19.1851 88.9786C19.1851 92.7266 22.207 95.7649 25.9348 95.7649Z" fill="url(#paint12_radial_529_3263)"/>
</g>
<g style="mix-blend-mode:lighten" opacity="0.75">
<path style="mix-blend-mode:screen" opacity="0.15" d="M26.1948 47.0854C33.6503 47.0854 39.6942 41.0088 39.6942 33.5129C39.6942 26.017 33.6503 19.9404 26.1948 19.9404C18.7392 19.9404 12.6953 26.017 12.6953 33.5129C12.6953 41.0088 18.7392 47.0854 26.1948 47.0854Z" fill="url(#paint13_radial_529_3263)"/>
<path style="mix-blend-mode:screen" opacity="0.33" d="M26.1945 40.3C29.9223 40.3 32.9443 37.2617 32.9443 33.5138C32.9443 29.7658 29.9223 26.7275 26.1945 26.7275C22.4668 26.7275 19.4448 29.7658 19.4448 33.5138C19.4448 37.2617 22.4668 40.3 26.1945 40.3Z" fill="url(#paint14_radial_529_3263)"/>
<path style="mix-blend-mode:screen" d="M26.1945 40.3C29.9223 40.3 32.9443 37.2617 32.9443 33.5138C32.9443 29.7658 29.9223 26.7275 26.1945 26.7275C22.4668 26.7275 19.4448 29.7658 19.4448 33.5138C19.4448 37.2617 22.4668 40.3 26.1945 40.3Z" fill="url(#paint15_radial_529_3263)"/>
</g>
</g>
<path style="mix-blend-mode:multiply" opacity="0.26" d="M53.1622 46.8669C51.4838 48.9066 49.2356 48.5921 47.7131 47.2414C49.2123 48.9575 51.7616 49.5787 53.6165 47.3236C61.6525 37.5593 75.936 39.2597 84.2693 47.4411C76.0087 38.8695 61.3462 36.9224 53.1622 46.8669ZM93.1413 44.5021C92.2963 43.4085 91.376 42.3749 90.3934 41.4091C91.2072 42.2418 91.9731 43.1214 92.687 44.0453C101.755 55.7803 100.885 73.4637 95.5504 86.6995C94.2005 90.0483 90.152 90.2349 88.1141 88.5096C89.9313 90.7021 94.5445 90.7778 96.0047 87.1563C101.34 73.9205 102.209 56.2371 93.1413 44.5021ZM80.1169 48.8349C92.5117 61.6335 87.7701 83.3286 73.9422 93.3931C61.6759 102.321 44.124 100.422 30.8751 94.6968C30.4481 94.5128 30.0885 94.291 29.79 94.0391C30.1495 94.4802 30.6557 94.8626 31.3294 95.1536C44.5783 100.879 62.1302 102.778 74.3965 93.8499C88.3918 83.6653 93.079 61.5669 80.1169 48.8349ZM31.8188 67.4331C26.567 57.9271 28.3816 44.8727 32.3029 35.1462C33.0194 33.3688 32.5028 31.9371 31.432 31.0327C32.1783 31.9319 32.4548 33.1873 31.8486 34.6895C27.9273 44.416 26.1127 57.4704 31.3645 66.9763C32.4211 68.8869 33.7541 70.6109 35.2884 72.113C33.9436 70.7205 32.7689 69.1531 31.8188 67.4331ZM71.8329 72.3009C73.1933 73.8578 73.6904 76.3152 72.0212 78.3433C60.9529 91.7918 40.7219 89.4936 29.176 78.158C40.6362 89.8864 61.2605 92.4274 72.4755 78.8C74.3187 76.5593 73.5204 73.7952 71.8329 72.3009ZM89.7768 25.5137C92.0964 28.3443 88.2036 33.4549 83.8682 31.8679C82.6507 31.4843 82.0211 31.218 81.3604 31.0014C78.7319 30.1414 76.0411 29.451 73.3205 28.9642C66.3657 27.7192 58.632 27.8353 52.312 31.3407C40.5571 37.8607 35.8232 55.1761 45.9413 64.977C36.4242 55.1043 41.1918 38.217 52.7663 31.7975C59.0863 28.2921 66.82 28.176 73.7748 29.421C76.4954 29.9078 79.1862 30.5981 81.8147 31.4582C82.4754 31.6748 83.105 31.941 84.3225 32.3247C88.9045 34.0017 92.9907 28.1995 89.7768 25.5137ZM47.2081 66.1776C50.3896 69.8513 44.6186 75.2803 40.6233 71.8115C40.217 71.4592 39.8263 71.0977 39.4498 70.7296C39.9626 71.2582 40.5051 71.7711 41.0776 72.2683C45.2429 75.8833 51.3372 69.8318 47.2081 66.1776ZM46.7149 65.6869C46.4475 65.4546 46.1905 65.2184 45.9413 64.977C46.3255 65.3776 46.7357 65.7678 47.1692 66.1437C47.1822 66.1554 47.1952 66.1672 47.2081 66.1776C47.0628 66.0106 46.8979 65.8462 46.7149 65.6869Z" fill="#7C3AED"/>
<path d="M145.689 93V27.5455H171.513C176.478 27.5455 180.707 28.4936 184.201 30.3899C187.696 32.2649 190.359 34.875 192.192 38.2202C194.045 41.544 194.972 45.3793 194.972 49.7259C194.972 54.0724 194.035 57.9077 192.16 61.2315C190.285 64.5554 187.568 67.1442 184.01 68.9979C180.473 70.8516 176.19 71.7784 171.162 71.7784H154.702V60.6882H168.924C171.588 60.6882 173.782 60.2301 175.508 59.3139C177.255 58.3764 178.555 57.0874 179.407 55.4467C180.281 53.7848 180.718 51.8778 180.718 49.7259C180.718 47.5526 180.281 45.6562 179.407 44.0369C178.555 42.3963 177.255 41.1285 175.508 40.2337C173.761 39.3175 171.545 38.8594 168.861 38.8594H159.528V93H145.689ZM205.505 93V43.9091H218.705V52.4744H219.216C220.111 49.4276 221.613 47.1264 223.723 45.571C225.832 43.9943 228.261 43.206 231.009 43.206C231.691 43.206 232.426 43.2486 233.215 43.3338C234.003 43.419 234.696 43.5362 235.292 43.6854V55.7663C234.653 55.5746 233.769 55.4041 232.639 55.255C231.51 55.1058 230.477 55.0312 229.539 55.0312C227.536 55.0312 225.747 55.468 224.17 56.3416C222.615 57.1939 221.379 58.3871 220.463 59.9212C219.568 61.4553 219.12 63.2237 219.12 65.2266V93H205.505ZM264.027 93.9588C259.062 93.9588 254.769 92.9041 251.147 90.7947C247.546 88.6641 244.765 85.7024 242.805 81.9098C240.845 78.0959 239.865 73.6747 239.865 68.6463C239.865 63.5753 240.845 59.1435 242.805 55.3509C244.765 51.5369 247.546 48.5753 251.147 46.4659C254.769 44.3352 259.062 43.2699 264.027 43.2699C268.991 43.2699 273.274 44.3352 276.875 46.4659C280.497 48.5753 283.288 51.5369 285.248 55.3509C287.208 59.1435 288.189 63.5753 288.189 68.6463C288.189 73.6747 287.208 78.0959 285.248 81.9098C283.288 85.7024 280.497 88.6641 276.875 90.7947C273.274 92.9041 268.991 93.9588 264.027 93.9588ZM264.091 83.4119C266.349 83.4119 268.235 82.7727 269.748 81.4943C271.26 80.1946 272.4 78.4261 273.167 76.1889C273.956 73.9517 274.35 71.4055 274.35 68.5504C274.35 65.6953 273.956 63.1491 273.167 60.9119C272.4 58.6747 271.26 56.9062 269.748 55.6065C268.235 54.3068 266.349 53.657 264.091 53.657C261.811 53.657 259.893 54.3068 258.338 55.6065C256.804 56.9062 255.642 58.6747 254.854 60.9119C254.087 63.1491 253.703 65.6953 253.703 68.5504C253.703 71.4055 254.087 73.9517 254.854 76.1889C255.642 78.4261 256.804 80.1946 258.338 81.4943C259.893 82.7727 261.811 83.4119 264.091 83.4119ZM298.842 43.9091H312.457V95.429C312.457 99.2216 311.711 102.29 310.219 104.634C308.728 106.977 306.587 108.692 303.795 109.779C301.025 110.866 297.712 111.409 293.856 111.409C293.387 111.409 292.94 111.398 292.513 111.377C292.066 111.377 291.597 111.366 291.107 111.345V100.702C291.469 100.724 291.789 100.734 292.066 100.734C292.322 100.756 292.599 100.766 292.897 100.766C295.092 100.766 296.626 100.298 297.499 99.3601C298.394 98.4439 298.842 97.0589 298.842 95.2053V43.9091ZM305.617 37.581C303.614 37.581 301.888 36.9098 300.44 35.5675C298.991 34.2038 298.266 32.5739 298.266 30.6776C298.266 28.8026 298.991 27.1939 300.44 25.8516C301.888 24.4879 303.614 23.8061 305.617 23.8061C307.663 23.8061 309.399 24.4879 310.827 25.8516C312.275 27.1939 313 28.8026 313 30.6776C313 32.5739 312.275 34.2038 310.827 35.5675C309.399 36.9098 307.663 37.581 305.617 37.581ZM347.535 93.9588C342.485 93.9588 338.139 92.9361 334.495 90.8906C330.873 88.8239 328.082 85.9048 326.122 82.1335C324.162 78.3409 323.181 73.8558 323.181 68.6783C323.181 63.6286 324.162 59.1967 326.122 55.3828C328.082 51.5689 330.841 48.5966 334.4 46.4659C337.979 44.3352 342.177 43.2699 346.992 43.2699C350.23 43.2699 353.245 43.7919 356.037 44.8359C358.849 45.8587 361.299 47.4034 363.387 49.4702C365.497 51.5369 367.137 54.1364 368.309 57.2685C369.481 60.3793 370.067 64.0227 370.067 68.1989V71.9382H328.615V63.5007H357.251C357.251 61.5405 356.825 59.804 355.973 58.2912C355.12 56.7784 353.938 55.5959 352.425 54.7436C350.934 53.87 349.197 53.4332 347.216 53.4332C345.149 53.4332 343.316 53.9126 341.718 54.8714C340.142 55.8089 338.906 57.0767 338.011 58.6747C337.116 60.2514 336.658 62.0092 336.637 63.9482V71.9702C336.637 74.3991 337.084 76.4979 337.979 78.2663C338.895 80.0348 340.184 81.3984 341.846 82.3572C343.508 83.3161 345.479 83.7955 347.759 83.7955C349.272 83.7955 350.657 83.5824 351.914 83.1562C353.171 82.7301 354.247 82.0909 355.142 81.2386C356.037 80.3864 356.718 79.3423 357.187 78.1065L369.78 78.9375C369.14 81.9631 367.83 84.6051 365.848 86.8636C363.888 89.1009 361.353 90.848 358.242 92.1051C355.152 93.3409 351.583 93.9588 347.535 93.9588ZM402.932 93.9588C397.904 93.9588 393.579 92.8935 389.957 90.7628C386.356 88.6108 383.586 85.6278 381.647 81.8139C379.729 78 378.771 73.6108 378.771 68.6463C378.771 63.6179 379.74 59.2074 381.679 55.4148C383.639 51.6009 386.42 48.6285 390.021 46.4979C393.621 44.3459 397.904 43.2699 402.869 43.2699C407.151 43.2699 410.901 44.0476 414.119 45.603C417.336 47.1584 419.882 49.3423 421.757 52.1548C423.632 54.9673 424.665 58.2699 424.857 62.0625H412.009C411.647 59.6122 410.688 57.6413 409.133 56.1499C407.599 54.6371 405.585 53.8807 403.092 53.8807C400.983 53.8807 399.14 54.456 397.563 55.6065C396.008 56.7358 394.793 58.3871 393.92 60.5604C393.046 62.7337 392.609 65.3651 392.609 68.4545C392.609 71.5866 393.035 74.25 393.888 76.4446C394.761 78.6392 395.986 80.3118 397.563 81.4624C399.14 82.6129 400.983 83.1882 403.092 83.1882C404.648 83.1882 406.043 82.8686 407.279 82.2294C408.536 81.5902 409.57 80.6634 410.379 79.4489C411.21 78.2131 411.754 76.7322 412.009 75.0064H424.857C424.644 78.7564 423.621 82.0589 421.789 84.9141C419.978 87.7479 417.474 89.9638 414.278 91.5618C411.082 93.1598 407.3 93.9588 402.932 93.9588ZM461.486 43.9091V54.1364H431.923V43.9091H461.486ZM438.634 32.1477H452.249V77.9148C452.249 79.1719 452.441 80.152 452.825 80.8551C453.208 81.5369 453.741 82.0163 454.423 82.2933C455.126 82.5703 455.935 82.7088 456.852 82.7088C457.491 82.7088 458.13 82.6555 458.769 82.549C459.408 82.4212 459.898 82.3253 460.239 82.2614L462.381 92.3928C461.699 92.6058 460.74 92.8509 459.504 93.1278C458.269 93.4261 456.766 93.6072 454.998 93.6712C451.717 93.799 448.84 93.3622 446.369 92.3608C443.918 91.3594 442.011 89.804 440.648 87.6946C439.284 85.5852 438.613 82.9219 438.634 79.7045V32.1477ZM496.668 93H473.465V27.5455H496.86C503.444 27.5455 509.112 28.8558 513.863 31.4766C518.614 34.076 522.268 37.8153 524.825 42.6946C527.403 47.5739 528.692 53.4119 528.692 60.2088C528.692 67.027 527.403 72.8864 524.825 77.7869C522.268 82.6875 518.593 86.4482 513.799 89.0689C509.026 91.6896 503.316 93 496.668 93ZM487.304 81.1428H496.093C500.184 81.1428 503.625 80.4183 506.416 78.9695C509.229 77.4993 511.338 75.2301 512.744 72.1619C514.172 69.0724 514.886 65.0881 514.886 60.2088C514.886 55.3722 514.172 51.4197 512.744 48.3516C511.338 45.2834 509.239 43.0249 506.448 41.576C503.657 40.1271 500.216 39.4027 496.125 39.4027H487.304V81.1428ZM540.488 93V43.9091H554.103V93H540.488ZM547.328 37.581C545.303 37.581 543.567 36.9098 542.118 35.5675C540.69 34.2038 539.977 32.5739 539.977 30.6776C539.977 28.8026 540.69 27.1939 542.118 25.8516C543.567 24.4879 545.303 23.8061 547.328 23.8061C549.352 23.8061 551.078 24.4879 552.505 25.8516C553.954 27.1939 554.678 28.8026 554.678 30.6776C554.678 32.5739 553.954 34.2038 552.505 35.5675C551.078 36.9098 549.352 37.581 547.328 37.581ZM607.655 57.9077L595.19 58.6747C594.977 57.6094 594.519 56.6506 593.816 55.7983C593.113 54.9247 592.186 54.2322 591.035 53.7209C589.906 53.1882 588.553 52.9219 586.976 52.9219C584.867 52.9219 583.088 53.3693 581.639 54.2642C580.19 55.1378 579.466 56.3097 579.466 57.7798C579.466 58.9517 579.935 59.9425 580.872 60.7521C581.81 61.5618 583.418 62.2116 585.698 62.7017L594.583 64.4915C599.356 65.4716 602.914 67.0483 605.258 69.2216C607.601 71.3949 608.773 74.25 608.773 77.7869C608.773 81.0043 607.825 83.8274 605.929 86.2564C604.054 88.6854 601.476 90.5817 598.194 91.9453C594.935 93.2876 591.174 93.9588 586.913 93.9588C580.414 93.9588 575.236 92.6058 571.38 89.8999C567.545 87.1726 565.297 83.4652 564.636 78.7777L578.028 78.0746C578.432 80.0561 579.413 81.5689 580.968 82.6129C582.523 83.6357 584.515 84.147 586.944 84.147C589.331 84.147 591.248 83.6889 592.697 82.7727C594.167 81.8352 594.913 80.6314 594.935 79.1612C594.913 77.9254 594.391 76.9134 593.368 76.125C592.346 75.3153 590.769 74.6974 588.638 74.2713L580.137 72.5774C575.343 71.6186 571.774 69.9567 569.43 67.5916C567.108 65.2266 565.947 62.2116 565.947 58.5469C565.947 55.3935 566.799 52.6768 568.503 50.397C570.229 48.1172 572.648 46.3594 575.758 45.1236C578.89 43.8878 582.555 43.2699 586.753 43.2699C592.953 43.2699 597.832 44.5803 601.39 47.201C604.97 49.8217 607.058 53.3906 607.655 57.9077ZM641.327 93.9588C636.299 93.9588 631.973 92.8935 628.351 90.7628C624.75 88.6108 621.98 85.6278 620.042 81.8139C618.124 78 617.165 73.6108 617.165 68.6463C617.165 63.6179 618.135 59.2074 620.073 55.4148C622.034 51.6009 624.814 48.6285 628.415 46.4979C632.016 44.3459 636.299 43.2699 641.263 43.2699C645.546 43.2699 649.296 44.0476 652.513 45.603C655.73 47.1584 658.277 49.3423 660.152 52.1548C662.027 54.9673 663.06 58.2699 663.252 62.0625H650.404C650.042 59.6122 649.083 57.6413 647.527 56.1499C645.993 54.6371 643.98 53.8807 641.487 53.8807C639.377 53.8807 637.534 54.456 635.958 55.6065C634.402 56.7358 633.188 58.3871 632.314 60.5604C631.441 62.7337 631.004 65.3651 631.004 68.4545C631.004 71.5866 631.43 74.25 632.282 76.4446C633.156 78.6392 634.381 80.3118 635.958 81.4624C637.534 82.6129 639.377 83.1882 641.487 83.1882C643.042 83.1882 644.438 82.8686 645.674 82.2294C646.931 81.5902 647.964 80.6634 648.774 79.4489C649.605 78.2131 650.148 76.7322 650.404 75.0064H663.252C663.039 78.7564 662.016 82.0589 660.184 84.9141C658.372 87.7479 655.869 89.9638 652.673 91.5618C649.477 93.1598 645.695 93.9588 641.327 93.9588ZM695.949 93.9588C690.985 93.9588 686.691 92.9041 683.069 90.7947C679.468 88.6641 676.688 85.7024 674.728 81.9098C672.767 78.0959 671.787 73.6747 671.787 68.6463C671.787 63.5753 672.767 59.1435 674.728 55.3509C676.688 51.5369 679.468 48.5753 683.069 46.4659C686.691 44.3352 690.985 43.2699 695.949 43.2699C700.914 43.2699 705.196 44.3352 708.797 46.4659C712.419 48.5753 715.211 51.5369 717.171 55.3509C719.131 59.1435 720.111 63.5753 720.111 68.6463C720.111 73.6747 719.131 78.0959 717.171 81.9098C715.211 85.7024 712.419 88.6641 708.797 90.7947C705.196 92.9041 700.914 93.9588 695.949 93.9588ZM696.013 83.4119C698.272 83.4119 700.157 82.7727 701.67 81.4943C703.183 80.1946 704.323 78.4261 705.09 76.1889C705.878 73.9517 706.272 71.4055 706.272 68.5504C706.272 65.6953 705.878 63.1491 705.09 60.9119C704.323 58.6747 703.183 56.9062 701.67 55.6065C700.157 54.3068 698.272 53.657 696.013 53.657C693.733 53.657 691.816 54.3068 690.26 55.6065C688.726 56.9062 687.565 58.6747 686.777 60.9119C686.01 63.1491 685.626 65.6953 685.626 68.5504C685.626 71.4055 686.01 73.9517 686.777 76.1889C687.565 78.4261 688.726 80.1946 690.26 81.4943C691.816 82.7727 693.733 83.4119 696.013 83.4119ZM774.949 43.9091L757.787 93H742.446L725.283 43.9091H739.665L749.86 79.0334H750.372L760.535 43.9091H774.949ZM804.507 93.9588C799.457 93.9588 795.11 92.9361 791.467 90.8906C787.845 88.8239 785.054 85.9048 783.093 82.1335C781.133 78.3409 780.153 73.8558 780.153 68.6783C780.153 63.6286 781.133 59.1967 783.093 55.3828C785.054 51.5689 787.813 48.5966 791.371 46.4659C794.951 44.3352 799.148 43.2699 803.963 43.2699C807.202 43.2699 810.217 43.7919 813.008 44.8359C815.821 45.8587 818.271 47.4034 820.359 49.4702C822.468 51.5369 824.109 54.1364 825.281 57.2685C826.453 60.3793 827.039 64.0227 827.039 68.1989V71.9382H785.586V63.5007H814.223C814.223 61.5405 813.796 59.804 812.944 58.2912C812.092 56.7784 810.909 55.5959 809.397 54.7436C807.905 53.87 806.169 53.4332 804.187 53.4332C802.12 53.4332 800.288 53.9126 798.69 54.8714C797.113 55.8089 795.877 57.0767 794.983 58.6747C794.088 60.2514 793.63 62.0092 793.608 63.9482V71.9702C793.608 74.3991 794.056 76.4979 794.951 78.2663C795.867 80.0348 797.156 81.3984 798.818 82.3572C800.48 83.3161 802.451 83.7955 804.73 83.7955C806.243 83.7955 807.628 83.5824 808.885 83.1562C810.142 82.7301 811.218 82.0909 812.113 81.2386C813.008 80.3864 813.69 79.3423 814.159 78.1065L826.751 78.9375C826.112 81.9631 824.801 84.6051 822.82 86.8636C820.86 89.1009 818.324 90.848 815.213 92.1051C812.124 93.3409 808.555 93.9588 804.507 93.9588ZM837.724 93V43.9091H850.923V52.4744H851.435C852.329 49.4276 853.832 47.1264 855.941 45.571C858.05 43.9943 860.479 43.206 863.228 43.206C863.91 43.206 864.645 43.2486 865.433 43.3338C866.221 43.419 866.914 43.5362 867.511 43.6854V55.7663C866.871 55.5746 865.987 55.4041 864.858 55.255C863.729 55.1058 862.695 55.0312 861.758 55.0312C859.755 55.0312 857.965 55.468 856.388 56.3416C854.833 57.1939 853.597 58.3871 852.681 59.9212C851.786 61.4553 851.339 63.2237 851.339 65.2266V93H837.724ZM886.249 111.409C884.524 111.409 882.904 111.271 881.391 110.994C879.9 110.738 878.664 110.408 877.684 110.003L880.752 99.8395C882.35 100.33 883.788 100.596 885.067 100.638C886.367 100.681 887.485 100.383 888.423 99.7436C889.382 99.1044 890.159 98.0178 890.756 96.4837L891.555 94.4062L873.945 43.9091H888.263L898.426 79.9602H898.938L909.197 43.9091H923.611L904.531 98.3054C903.614 100.947 902.368 103.249 900.791 105.209C899.236 107.19 897.265 108.714 894.879 109.779C892.492 110.866 889.616 111.409 886.249 111.409Z" fill="#FAFAFA"/>
<defs>
<radialGradient id="paint0_radial_529_3263" cx="0" cy="0" r="1" gradientUnits="userSpaceOnUse" gradientTransform="translate(59.9997 59.9993) scale(39.8922 40.108)">
<stop stop-color="#B49BED"/>
<stop offset="0.23" stop-color="#B095ED"/>
<stop offset="0.52" stop-color="#A584F0"/>
<stop offset="0.86" stop-color="#5B44EB"/>
<stop offset="1" stop-color="#5E3AED"/>
</radialGradient>
<radialGradient id="paint1_radial_529_3263" cx="0" cy="0" r="1" gradientUnits="userSpaceOnUse" gradientTransform="translate(42.1803 27.6291) scale(13.5358 13.609)">
<stop stop-color="#230000"/>
<stop offset="0.73" stop-color="#93432A"/>
<stop offset="1" stop-color="#230000"/>
</radialGradient>
<radialGradient id="paint2_radial_529_3263" cx="0" cy="0" r="1" gradientUnits="userSpaceOnUse" gradientTransform="translate(42.1801 27.6309) scale(6.7679 6.80452)">
<stop offset="0.15" stop-color="white"/>
<stop offset="0.21" stop-color="#E1D0D1"/>
<stop offset="0.29" stop-color="#BF9A9C"/>
<stop offset="0.36" stop-color="#A67275"/>
<stop offset="0.42" stop-color="#96595D"/>
<stop offset="0.45" stop-color="#915155"/>
<stop offset="0.56" stop-color="#6B3538"/>
<stop offset="0.68" stop-color="#441819"/>
<stop offset="0.79" stop-color="#2B0606"/>
<stop offset="0.85" stop-color="#230000"/>
<stop offset="0.86" stop-color="#330805"/>
<stop offset="0.87" stop-color="#48120B"/>
<stop offset="0.88" stop-color="#652014"/>
<stop offset="0.89" stop-color="#8A331F"/>
<stop offset="0.9" stop-color="#C95132"/>
<stop offset="0.91" stop-color="#9D3C24"/>
<stop offset="0.93" stop-color="#772919"/>
<stop offset="0.94" stop-color="#581A10"/>
<stop offset="0.95" stop-color="#410E09"/>
<stop offset="0.97" stop-color="#300603"/>
<stop offset="0.98" stop-color="#260100"/>
<stop offset="1" stop-color="#230000"/>
</radialGradient>
<radialGradient id="paint3_radial_529_3263" cx="0" cy="0" r="1" gradientUnits="userSpaceOnUse" gradientTransform="translate(42.1801 27.6309) scale(6.7679 6.80452)">
<stop offset="0.15" stop-color="white"/>
<stop offset="0.28" stop-color="#C2C2C2"/>
<stop offset="0.43" stop-color="#878787"/>
<stop offset="0.56" stop-color="#575757"/>
<stop offset="0.69" stop-color="#313131"/>
<stop offset="0.81" stop-color="#161616"/>
<stop offset="0.92" stop-color="#050505"/>
<stop offset="1"/>
</radialGradient>
<radialGradient id="paint4_radial_529_3263" cx="0" cy="0" r="1" gradientUnits="userSpaceOnUse" gradientTransform="translate(71.4629 69.7654) scale(0.0512719 0.0515494)">
<stop stop-color="#230000"/>
<stop offset="0.73" stop-color="#93432A"/>
<stop offset="1" stop-color="#230000"/>
</radialGradient>
<radialGradient id="paint5_radial_529_3263" cx="0" cy="0" r="1" gradientUnits="userSpaceOnUse" gradientTransform="translate(71.4631 69.7653) scale(0.0512719 0.0515494)">
<stop offset="0.15" stop-color="white"/>
<stop offset="0.21" stop-color="#E1D0D1"/>
<stop offset="0.29" stop-color="#BF9A9C"/>
<stop offset="0.36" stop-color="#A67275"/>
<stop offset="0.42" stop-color="#96595D"/>
<stop offset="0.45" stop-color="#915155"/>
<stop offset="0.56" stop-color="#6B3538"/>
<stop offset="0.68" stop-color="#441819"/>
<stop offset="0.79" stop-color="#2B0606"/>
<stop offset="0.85" stop-color="#230000"/>
<stop offset="0.86" stop-color="#330805"/>
<stop offset="0.87" stop-color="#48120B"/>
<stop offset="0.88" stop-color="#652014"/>
<stop offset="0.89" stop-color="#8A331F"/>
<stop offset="0.9" stop-color="#C95132"/>
<stop offset="0.91" stop-color="#9D3C24"/>
<stop offset="0.93" stop-color="#772919"/>
<stop offset="0.94" stop-color="#581A10"/>
<stop offset="0.95" stop-color="#410E09"/>
<stop offset="0.97" stop-color="#300603"/>
<stop offset="0.98" stop-color="#260100"/>
<stop offset="1" stop-color="#230000"/>
</radialGradient>
<radialGradient id="paint6_radial_529_3263" cx="0" cy="0" r="1" gradientUnits="userSpaceOnUse" gradientTransform="translate(71.4631 69.7653) scale(0.0512719 0.0515494)">
<stop offset="0.15" stop-color="white"/>
<stop offset="0.28" stop-color="#C2C2C2"/>
<stop offset="0.43" stop-color="#878787"/>
<stop offset="0.56" stop-color="#575757"/>
<stop offset="0.69" stop-color="#313131"/>
<stop offset="0.81" stop-color="#161616"/>
<stop offset="0.92" stop-color="#050505"/>
<stop offset="1"/>
</radialGradient>
<radialGradient id="paint7_radial_529_3263" cx="0" cy="0" r="1" gradientUnits="userSpaceOnUse" gradientTransform="translate(48.0354 33.5125) scale(0.0512719 0.0515494)">
<stop stop-color="#230000"/>
<stop offset="0.73" stop-color="#93432A"/>
<stop offset="1" stop-color="#230000"/>
</radialGradient>
<radialGradient id="paint8_radial_529_3263" cx="0" cy="0" r="1" gradientUnits="userSpaceOnUse" gradientTransform="translate(48.0361 33.5143) scale(0.0512719 0.0515494)">
<stop offset="0.15" stop-color="white"/>
<stop offset="0.21" stop-color="#E1D0D1"/>
<stop offset="0.29" stop-color="#BF9A9C"/>
<stop offset="0.36" stop-color="#A67275"/>
<stop offset="0.42" stop-color="#96595D"/>
<stop offset="0.45" stop-color="#915155"/>
<stop offset="0.56" stop-color="#6B3538"/>
<stop offset="0.68" stop-color="#441819"/>
<stop offset="0.79" stop-color="#2B0606"/>
<stop offset="0.85" stop-color="#230000"/>
<stop offset="0.86" stop-color="#330805"/>
<stop offset="0.87" stop-color="#48120B"/>
<stop offset="0.88" stop-color="#652014"/>
<stop offset="0.89" stop-color="#8A331F"/>
<stop offset="0.9" stop-color="#C95132"/>
<stop offset="0.91" stop-color="#9D3C24"/>
<stop offset="0.93" stop-color="#772919"/>
<stop offset="0.94" stop-color="#581A10"/>
<stop offset="0.95" stop-color="#410E09"/>
<stop offset="0.97" stop-color="#300603"/>
<stop offset="0.98" stop-color="#260100"/>
<stop offset="1" stop-color="#230000"/>
</radialGradient>
<radialGradient id="paint9_radial_529_3263" cx="0" cy="0" r="1" gradientUnits="userSpaceOnUse" gradientTransform="translate(48.0361 33.5143) scale(0.0512719 0.0515494)">
<stop offset="0.15" stop-color="white"/>
<stop offset="0.28" stop-color="#C2C2C2"/>
<stop offset="0.43" stop-color="#878787"/>
<stop offset="0.56" stop-color="#575757"/>
<stop offset="0.69" stop-color="#313131"/>
<stop offset="0.81" stop-color="#161616"/>
<stop offset="0.92" stop-color="#050505"/>
<stop offset="1"/>
</radialGradient>
<radialGradient id="paint10_radial_529_3263" cx="0" cy="0" r="1" gradientUnits="userSpaceOnUse" gradientTransform="translate(25.3892 88.9971) scale(0.0512719 0.0515494)">
<stop stop-color="#230000"/>
<stop offset="0.73" stop-color="#93432A"/>
<stop offset="1" stop-color="#230000"/>
</radialGradient>
<radialGradient id="paint11_radial_529_3263" cx="0" cy="0" r="1" gradientUnits="userSpaceOnUse" gradientTransform="translate(25.3885 88.9989) scale(0.0512719 0.0515494)">
<stop offset="0.15" stop-color="white"/>
<stop offset="0.21" stop-color="#E1D0D1"/>
<stop offset="0.29" stop-color="#BF9A9C"/>
<stop offset="0.36" stop-color="#A67275"/>
<stop offset="0.42" stop-color="#96595D"/>
<stop offset="0.45" stop-color="#915155"/>
<stop offset="0.56" stop-color="#6B3538"/>
<stop offset="0.68" stop-color="#441819"/>
<stop offset="0.79" stop-color="#2B0606"/>
<stop offset="0.85" stop-color="#230000"/>
<stop offset="0.86" stop-color="#330805"/>
<stop offset="0.87" stop-color="#48120B"/>
<stop offset="0.88" stop-color="#652014"/>
<stop offset="0.89" stop-color="#8A331F"/>
<stop offset="0.9" stop-color="#C95132"/>
<stop offset="0.91" stop-color="#9D3C24"/>
<stop offset="0.93" stop-color="#772919"/>
<stop offset="0.94" stop-color="#581A10"/>
<stop offset="0.95" stop-color="#410E09"/>
<stop offset="0.97" stop-color="#300603"/>
<stop offset="0.98" stop-color="#260100"/>
<stop offset="1" stop-color="#230000"/>
</radialGradient>
<radialGradient id="paint12_radial_529_3263" cx="0" cy="0" r="1" gradientUnits="userSpaceOnUse" gradientTransform="translate(25.3885 88.9989) scale(0.0512719 0.0515494)">
<stop offset="0.15" stop-color="white"/>
<stop offset="0.28" stop-color="#C2C2C2"/>
<stop offset="0.43" stop-color="#878787"/>
<stop offset="0.56" stop-color="#575757"/>
<stop offset="0.69" stop-color="#313131"/>
<stop offset="0.81" stop-color="#161616"/>
<stop offset="0.92" stop-color="#050505"/>
<stop offset="1"/>
</radialGradient>
<radialGradient id="paint13_radial_529_3263" cx="0" cy="0" r="1" gradientUnits="userSpaceOnUse" gradientTransform="translate(25.6493 33.3832) scale(0.0512719 0.0515494)">
<stop stop-color="#230000"/>
<stop offset="0.73" stop-color="#93432A"/>
<stop offset="1" stop-color="#230000"/>
</radialGradient>
<radialGradient id="paint14_radial_529_3263" cx="0" cy="0" r="1" gradientUnits="userSpaceOnUse" gradientTransform="translate(25.6491 33.384) scale(0.0512719 0.0515494)">
<stop offset="0.15" stop-color="white"/>
<stop offset="0.21" stop-color="#E1D0D1"/>
<stop offset="0.29" stop-color="#BF9A9C"/>
<stop offset="0.36" stop-color="#A67275"/>
<stop offset="0.42" stop-color="#96595D"/>
<stop offset="0.45" stop-color="#915155"/>
<stop offset="0.56" stop-color="#6B3538"/>
<stop offset="0.68" stop-color="#441819"/>
<stop offset="0.79" stop-color="#2B0606"/>
<stop offset="0.85" stop-color="#230000"/>
<stop offset="0.86" stop-color="#330805"/>
<stop offset="0.87" stop-color="#48120B"/>
<stop offset="0.88" stop-color="#652014"/>
<stop offset="0.89" stop-color="#8A331F"/>
<stop offset="0.9" stop-color="#C95132"/>
<stop offset="0.91" stop-color="#9D3C24"/>
<stop offset="0.93" stop-color="#772919"/>
<stop offset="0.94" stop-color="#581A10"/>
<stop offset="0.95" stop-color="#410E09"/>
<stop offset="0.97" stop-color="#300603"/>
<stop offset="0.98" stop-color="#260100"/>
<stop offset="1" stop-color="#230000"/>
</radialGradient>
<radialGradient id="paint15_radial_529_3263" cx="0" cy="0" r="1" gradientUnits="userSpaceOnUse" gradientTransform="translate(25.6491 33.384) scale(0.0512719 0.0515494)">
<stop offset="0.15" stop-color="white"/>
<stop offset="0.28" stop-color="#C2C2C2"/>
<stop offset="0.43" stop-color="#878787"/>
<stop offset="0.56" stop-color="#575757"/>
<stop offset="0.69" stop-color="#313131"/>
<stop offset="0.81" stop-color="#161616"/>
<stop offset="0.92" stop-color="#050505"/>
<stop offset="1"/>
</radialGradient>
</defs>
</svg>
